<?xml version="1.0" encoding="UTF-8"?>
<svg xmlns="http://www.w3.org/2000/svg" version="1.1" width="300" height="300" viewBox="0 0 300 300"><rect x="0" y="0" width="300" height="300" fill="#ffffff"/><g transform="scale(10.345)"><g transform="translate(2,2)"><path fill-rule="evenodd" d="M8 0L8 3L9 3L9 4L10 4L10 5L11 5L11 6L10 6L10 7L11 7L11 8L13 8L13 6L14 6L14 7L15 7L15 6L14 6L14 5L15 5L15 4L14 4L14 3L15 3L15 2L16 2L16 8L17 8L17 9L16 9L16 10L17 10L17 9L18 9L18 14L16 14L16 13L17 13L17 12L16 12L16 11L15 11L15 10L14 10L14 9L13 9L13 10L10 10L10 11L9 11L9 9L10 9L10 8L9 8L9 5L8 5L8 10L4 10L4 9L5 9L5 8L2 8L2 9L1 9L1 11L0 11L0 12L2 12L2 13L3 13L3 14L2 14L2 15L4 15L4 14L5 14L5 13L4 13L4 12L3 12L3 11L5 11L5 12L6 12L6 13L7 13L7 12L6 12L6 11L9 11L9 12L8 12L8 14L6 14L6 15L5 15L5 16L3 16L3 17L7 17L7 16L6 16L6 15L8 15L8 16L9 16L9 17L8 17L8 18L9 18L9 17L10 17L10 19L9 19L9 20L8 20L8 23L10 23L10 24L9 24L9 25L11 25L11 24L13 24L13 25L16 25L16 24L14 24L14 23L12 23L12 22L13 22L13 21L14 21L14 20L15 20L15 19L16 19L16 21L15 21L15 22L16 22L16 23L17 23L17 22L18 22L18 24L17 24L17 25L22 25L22 24L21 24L21 23L22 23L22 21L24 21L24 23L25 23L25 20L23 20L23 19L22 19L22 21L21 21L21 16L22 16L22 15L24 15L24 17L25 17L25 14L24 14L24 13L22 13L22 12L23 12L23 11L22 11L22 12L21 12L21 13L20 13L20 14L19 14L19 12L20 12L20 11L21 11L21 10L25 10L25 8L22 8L22 9L20 9L20 8L17 8L17 1L16 1L16 0L15 0L15 2L14 2L14 0L13 0L13 2L12 2L12 1L11 1L11 3L9 3L9 2L10 2L10 0ZM11 3L11 5L12 5L12 3ZM13 4L13 5L14 5L14 4ZM11 6L11 7L12 7L12 6ZM6 8L6 9L7 9L7 8ZM2 9L2 10L3 10L3 9ZM19 9L19 10L20 10L20 9ZM13 10L13 12L9 12L9 13L12 13L12 14L14 14L14 13L15 13L15 12L14 12L14 10ZM24 11L24 12L25 12L25 11ZM13 12L13 13L14 13L14 12ZM0 13L0 17L1 17L1 13ZM21 13L21 14L20 14L20 16L21 16L21 15L22 15L22 13ZM9 14L9 16L10 16L10 14ZM18 14L18 15L16 15L16 16L19 16L19 14ZM14 15L14 16L13 16L13 17L11 17L11 19L12 19L12 20L14 20L14 19L13 19L13 17L14 17L14 18L15 18L15 15ZM17 17L17 20L20 20L20 17ZM22 17L22 18L23 18L23 17ZM18 18L18 19L19 19L19 18ZM9 20L9 21L11 21L11 22L10 22L10 23L11 23L11 22L12 22L12 21L11 21L11 20ZM18 21L18 22L20 22L20 23L19 23L19 24L20 24L20 23L21 23L21 21ZM24 24L24 25L25 25L25 24ZM0 0L0 7L7 7L7 0ZM1 1L1 6L6 6L6 1ZM2 2L2 5L5 5L5 2ZM18 0L18 7L25 7L25 0ZM19 1L19 6L24 6L24 1ZM20 2L20 5L23 5L23 2ZM0 18L0 25L7 25L7 18ZM1 19L1 24L6 24L6 19ZM2 20L2 23L5 23L5 20Z" fill="#000000"/></g></g></svg>
