<?xml version="1.0" encoding="UTF-8"?>
<svg xmlns="http://www.w3.org/2000/svg" version="1.1" width="300" height="300" viewBox="0 0 300 300"><rect x="0" y="0" width="300" height="300" fill="#ffffff"/><g transform="scale(10.345)"><g transform="translate(2,2)"><path fill-rule="evenodd" d="M10 0L10 1L8 1L8 7L9 7L9 5L10 5L10 7L11 7L11 8L5 8L5 10L3 10L3 8L2 8L2 10L3 10L3 11L4 11L4 12L5 12L5 11L7 11L7 12L6 12L6 13L7 13L7 14L6 14L6 15L5 15L5 13L3 13L3 12L2 12L2 11L1 11L1 10L0 10L0 11L1 11L1 12L2 12L2 13L3 13L3 14L4 14L4 16L6 16L6 17L8 17L8 20L9 20L9 17L8 17L8 16L10 16L10 18L11 18L11 19L10 19L10 20L11 20L11 21L12 21L12 22L13 22L13 19L12 19L12 18L13 18L13 17L14 17L14 18L15 18L15 20L14 20L14 22L15 22L15 20L16 20L16 22L17 22L17 23L20 23L20 25L21 25L21 23L20 23L20 22L19 22L19 21L23 21L23 19L24 19L24 21L25 21L25 19L24 19L24 18L25 18L25 16L23 16L23 15L21 15L21 14L20 14L20 13L21 13L21 12L22 12L22 13L23 13L23 14L24 14L24 15L25 15L25 13L24 13L24 12L23 12L23 11L24 11L24 8L19 8L19 9L22 9L22 11L21 11L21 10L20 10L20 11L19 11L19 10L16 10L16 7L17 7L17 5L16 5L16 4L17 4L17 3L16 3L16 4L15 4L15 2L17 2L17 1L15 1L15 0L13 0L13 2L10 2L10 1L11 1L11 0ZM13 2L13 4L12 4L12 3L10 3L10 5L13 5L13 4L14 4L14 5L15 5L15 7L16 7L16 5L15 5L15 4L14 4L14 2ZM11 6L11 7L12 7L12 8L11 8L11 9L10 9L10 10L11 10L11 9L12 9L12 11L13 11L13 12L10 12L10 13L8 13L8 14L7 14L7 15L6 15L6 16L8 16L8 14L11 14L11 16L12 16L12 17L11 17L11 18L12 18L12 17L13 17L13 15L14 15L14 17L15 17L15 18L16 18L16 17L15 17L15 16L18 16L18 15L19 15L19 13L17 13L17 12L19 12L19 11L17 11L17 12L15 12L15 11L16 11L16 10L15 10L15 11L13 11L13 9L15 9L15 8L14 8L14 6L13 6L13 7L12 7L12 6ZM12 8L12 9L13 9L13 8ZM17 8L17 9L18 9L18 8ZM6 9L6 10L7 10L7 11L9 11L9 10L7 10L7 9ZM20 11L20 12L21 12L21 11ZM13 12L13 13L11 13L11 14L14 14L14 15L16 15L16 14L15 14L15 13L14 13L14 12ZM0 14L0 15L2 15L2 16L0 16L0 17L3 17L3 15L2 15L2 14ZM20 15L20 16L21 16L21 20L22 20L22 18L24 18L24 17L23 17L23 16L21 16L21 15ZM17 17L17 20L20 20L20 17ZM18 18L18 19L19 19L19 18ZM9 21L9 22L8 22L8 23L9 23L9 22L10 22L10 23L11 23L11 24L9 24L9 25L11 25L11 24L12 24L12 23L11 23L11 22L10 22L10 21ZM23 22L23 23L22 23L22 24L23 24L23 25L25 25L25 22ZM15 23L15 24L14 24L14 25L17 25L17 24L16 24L16 23ZM23 23L23 24L24 24L24 23ZM18 24L18 25L19 25L19 24ZM0 0L0 7L7 7L7 0ZM1 1L1 6L6 6L6 1ZM2 2L2 5L5 5L5 2ZM18 0L18 7L25 7L25 0ZM19 1L19 6L24 6L24 1ZM20 2L20 5L23 5L23 2ZM0 18L0 25L7 25L7 18ZM1 19L1 24L6 24L6 19ZM2 20L2 23L5 23L5 20Z" fill="#000000"/></g></g></svg>
