<?xml version="1.0" encoding="UTF-8"?>
<svg xmlns="http://www.w3.org/2000/svg" version="1.1" width="300" height="300" viewBox="0 0 300 300"><rect x="0" y="0" width="300" height="300" fill="#ffffff"/><g transform="scale(10.345)"><g transform="translate(2,2)"><path fill-rule="evenodd" d="M8 0L8 1L9 1L9 0ZM11 0L11 2L10 2L10 3L8 3L8 4L9 4L9 6L8 6L8 7L9 7L9 8L8 8L8 9L7 9L7 8L4 8L4 9L3 9L3 8L2 8L2 10L0 10L0 11L1 11L1 13L2 13L2 15L1 15L1 14L0 14L0 15L1 15L1 16L0 16L0 17L1 17L1 16L2 16L2 17L3 17L3 16L2 16L2 15L3 15L3 13L2 13L2 11L4 11L4 17L5 17L5 12L6 12L6 13L7 13L7 12L9 12L9 13L11 13L11 12L10 12L10 10L11 10L11 9L13 9L13 12L12 12L12 15L13 15L13 16L12 16L12 19L11 19L11 20L10 20L10 21L9 21L9 19L8 19L8 21L9 21L9 22L8 22L8 23L9 23L9 25L12 25L12 24L15 24L15 23L16 23L16 22L17 22L17 21L18 21L18 23L17 23L17 24L16 24L16 25L19 25L19 24L20 24L20 23L19 23L19 21L20 21L20 22L21 22L21 21L22 21L22 23L21 23L21 24L22 24L22 23L23 23L23 24L24 24L24 25L25 25L25 22L24 22L24 21L25 21L25 19L23 19L23 18L25 18L25 16L24 16L24 15L25 15L25 13L24 13L24 14L23 14L23 15L22 15L22 13L23 13L23 12L24 12L24 11L23 11L23 9L22 9L22 8L21 8L21 9L19 9L19 10L18 10L18 8L17 8L17 5L16 5L16 4L17 4L17 3L16 3L16 1L17 1L17 0L14 0L14 2L13 2L13 0ZM11 2L11 3L12 3L12 4L10 4L10 5L11 5L11 7L10 7L10 6L9 6L9 7L10 7L10 8L12 8L12 5L14 5L14 6L13 6L13 7L14 7L14 6L15 6L15 7L16 7L16 6L15 6L15 5L14 5L14 4L16 4L16 3L12 3L12 2ZM13 8L13 9L15 9L15 10L14 10L14 11L15 11L15 10L16 10L16 12L14 12L14 13L16 13L16 14L15 14L15 15L16 15L16 16L15 16L15 17L14 17L14 18L13 18L13 19L12 19L12 21L11 21L11 22L9 22L9 23L11 23L11 24L12 24L12 23L11 23L11 22L12 22L12 21L13 21L13 19L15 19L15 20L16 20L16 18L15 18L15 17L16 17L16 16L17 16L17 13L18 13L18 15L19 15L19 16L20 16L20 15L19 15L19 14L20 14L20 13L21 13L21 12L22 12L22 11L21 11L21 10L19 10L19 11L18 11L18 10L17 10L17 9L16 9L16 8ZM24 8L24 9L25 9L25 8ZM4 9L4 10L5 10L5 11L6 11L6 12L7 12L7 11L8 11L8 10L9 10L9 9L8 9L8 10L7 10L7 9ZM6 10L6 11L7 11L7 10ZM17 11L17 12L18 12L18 13L19 13L19 12L18 12L18 11ZM20 11L20 12L21 12L21 11ZM6 14L6 15L7 15L7 16L6 16L6 17L8 17L8 18L9 18L9 17L10 17L10 18L11 18L11 16L9 16L9 15L7 15L7 14ZM13 14L13 15L14 15L14 14ZM8 16L8 17L9 17L9 16ZM23 16L23 17L22 17L22 18L23 18L23 17L24 17L24 16ZM17 17L17 20L20 20L20 17ZM18 18L18 19L19 19L19 18ZM22 20L22 21L23 21L23 20ZM14 21L14 23L15 23L15 21ZM23 22L23 23L24 23L24 22ZM18 23L18 24L19 24L19 23ZM0 0L0 7L7 7L7 0ZM1 1L1 6L6 6L6 1ZM2 2L2 5L5 5L5 2ZM18 0L18 7L25 7L25 0ZM19 1L19 6L24 6L24 1ZM20 2L20 5L23 5L23 2ZM0 18L0 25L7 25L7 18ZM1 19L1 24L6 24L6 19ZM2 20L2 23L5 23L5 20Z" fill="#000000"/></g></g></svg>
