<?xml version="1.0" encoding="UTF-8"?>
<svg xmlns="http://www.w3.org/2000/svg" version="1.1" width="300" height="300" viewBox="0 0 300 300"><rect x="0" y="0" width="300" height="300" fill="#ffffff"/><g transform="scale(10.345)"><g transform="translate(2,2)"><path fill-rule="evenodd" d="M8 0L8 2L9 2L9 3L8 3L8 7L9 7L9 8L11 8L11 9L12 9L12 10L11 10L11 11L9 11L9 12L8 12L8 11L7 11L7 10L10 10L10 9L7 9L7 8L6 8L6 9L7 9L7 10L6 10L6 11L0 11L0 13L2 13L2 12L5 12L5 13L8 13L8 14L9 14L9 13L10 13L10 14L12 14L12 13L11 13L11 11L12 11L12 10L14 10L14 14L18 14L18 13L20 13L20 14L19 14L19 15L17 15L17 16L16 16L16 15L14 15L14 16L16 16L16 17L15 17L15 18L16 18L16 20L15 20L15 19L14 19L14 20L13 20L13 22L11 22L11 21L12 21L12 20L9 20L9 21L8 21L8 22L9 22L9 23L10 23L10 24L9 24L9 25L10 25L10 24L11 24L11 25L12 25L12 24L11 24L11 23L13 23L13 25L14 25L14 23L13 23L13 22L14 22L14 20L15 20L15 23L17 23L17 21L18 21L18 23L20 23L20 25L22 25L22 21L23 21L23 22L24 22L24 25L25 25L25 22L24 22L24 21L25 21L25 19L23 19L23 17L22 17L22 16L24 16L24 18L25 18L25 16L24 16L24 15L25 15L25 13L24 13L24 15L23 15L23 11L22 11L22 10L23 10L23 9L25 9L25 8L23 8L23 9L22 9L22 8L19 8L19 10L18 10L18 9L16 9L16 8L17 8L17 6L16 6L16 5L13 5L13 4L15 4L15 3L16 3L16 4L17 4L17 3L16 3L16 2L17 2L17 1L16 1L16 0L14 0L14 3L13 3L13 2L12 2L12 1L11 1L11 0L10 0L10 1L9 1L9 0ZM10 1L10 2L11 2L11 1ZM12 3L12 4L13 4L13 3ZM10 4L10 5L9 5L9 7L10 7L10 6L11 6L11 8L12 8L12 9L13 9L13 7L14 7L14 8L16 8L16 6L15 6L15 7L14 7L14 6L13 6L13 7L12 7L12 6L11 6L11 4ZM3 8L3 9L1 9L1 10L5 10L5 9L4 9L4 8ZM14 9L14 10L15 10L15 9ZM16 10L16 11L15 11L15 13L18 13L18 12L19 12L19 11L18 11L18 10ZM6 11L6 12L7 12L7 11ZM16 11L16 12L17 12L17 11ZM21 11L21 12L20 12L20 13L21 13L21 12L22 12L22 11ZM3 13L3 14L2 14L2 15L1 15L1 14L0 14L0 15L1 15L1 16L0 16L0 17L2 17L2 15L3 15L3 17L4 17L4 16L5 16L5 15L7 15L7 14L4 14L4 13ZM3 14L3 15L4 15L4 14ZM10 15L10 16L6 16L6 17L8 17L8 18L9 18L9 19L11 19L11 18L9 18L9 17L10 17L10 16L11 16L11 17L12 17L12 18L13 18L13 15L12 15L12 16L11 16L11 15ZM20 15L20 16L21 16L21 15ZM17 17L17 20L20 20L20 17ZM21 17L21 19L22 19L22 20L23 20L23 21L24 21L24 20L23 20L23 19L22 19L22 17ZM18 18L18 19L19 19L19 18ZM9 21L9 22L10 22L10 23L11 23L11 22L10 22L10 21ZM20 21L20 23L21 23L21 21ZM16 24L16 25L19 25L19 24ZM0 0L0 7L7 7L7 0ZM1 1L1 6L6 6L6 1ZM2 2L2 5L5 5L5 2ZM18 0L18 7L25 7L25 0ZM19 1L19 6L24 6L24 1ZM20 2L20 5L23 5L23 2ZM0 18L0 25L7 25L7 18ZM1 19L1 24L6 24L6 19ZM2 20L2 23L5 23L5 20Z" fill="#000000"/></g></g></svg>
