<?xml version="1.0" encoding="UTF-8"?>
<svg xmlns="http://www.w3.org/2000/svg" version="1.1" width="300" height="300" viewBox="0 0 300 300"><rect x="0" y="0" width="300" height="300" fill="#ffffff"/><g transform="scale(10.345)"><g transform="translate(2,2)"><path fill-rule="evenodd" d="M8 0L8 2L9 2L9 3L8 3L8 7L9 7L9 8L10 8L10 9L11 9L11 8L12 8L12 7L13 7L13 6L12 6L12 7L11 7L11 6L10 6L10 5L9 5L9 4L10 4L10 3L11 3L11 5L12 5L12 4L13 4L13 5L15 5L15 6L14 6L14 9L12 9L12 10L11 10L11 12L10 12L10 10L9 10L9 9L7 9L7 8L6 8L6 9L7 9L7 10L6 10L6 11L4 11L4 12L3 12L3 15L4 15L4 16L2 16L2 15L1 15L1 14L0 14L0 15L1 15L1 16L0 16L0 17L5 17L5 15L4 15L4 12L6 12L6 13L5 13L5 14L6 14L6 15L7 15L7 14L6 14L6 13L9 13L9 12L10 12L10 14L8 14L8 15L9 15L9 16L10 16L10 19L9 19L9 20L10 20L10 21L8 21L8 22L9 22L9 23L11 23L11 22L12 22L12 24L10 24L10 25L12 25L12 24L13 24L13 25L15 25L15 23L17 23L17 21L18 21L18 23L19 23L19 24L16 24L16 25L23 25L23 23L22 23L22 21L23 21L23 22L24 22L24 25L25 25L25 22L24 22L24 21L25 21L25 19L23 19L23 20L22 20L22 21L21 21L21 18L23 18L23 17L21 17L21 15L22 15L22 16L24 16L24 18L25 18L25 16L24 16L24 15L25 15L25 13L24 13L24 15L22 15L22 14L21 14L21 15L20 15L20 13L19 13L19 12L18 12L18 13L16 13L16 12L15 12L15 11L14 11L14 10L15 10L15 9L16 9L16 11L17 11L17 10L18 10L18 11L19 11L19 10L20 10L20 9L21 9L21 11L22 11L22 13L23 13L23 11L22 11L22 10L23 10L23 9L25 9L25 8L23 8L23 9L22 9L22 8L19 8L19 10L18 10L18 9L16 9L16 8L17 8L17 6L16 6L16 5L17 5L17 4L15 4L15 3L17 3L17 2L15 2L15 1L17 1L17 0L10 0L10 1L9 1L9 0ZM10 1L10 2L13 2L13 4L14 4L14 3L15 3L15 2L14 2L14 1ZM9 6L9 7L10 7L10 8L11 8L11 7L10 7L10 6ZM15 6L15 8L16 8L16 6ZM3 8L3 9L0 9L0 12L1 12L1 10L2 10L2 11L3 11L3 9L4 9L4 8ZM12 10L12 11L13 11L13 10ZM6 11L6 12L9 12L9 11ZM11 12L11 14L12 14L12 15L11 15L11 19L10 19L10 20L12 20L12 21L14 21L14 23L15 23L15 21L14 21L14 20L13 20L13 19L12 19L12 18L13 18L13 17L16 17L16 16L17 16L17 15L19 15L19 16L20 16L20 15L19 15L19 13L18 13L18 14L15 14L15 15L16 15L16 16L14 16L14 15L13 15L13 14L14 14L14 12L13 12L13 13L12 13L12 12ZM12 15L12 16L13 16L13 15ZM6 16L6 17L7 17L7 16ZM8 17L8 18L9 18L9 17ZM17 17L17 20L20 20L20 17ZM15 18L15 20L16 20L16 18ZM18 18L18 19L19 19L19 18ZM23 20L23 21L24 21L24 20ZM19 21L19 23L20 23L20 24L21 24L21 23L20 23L20 21ZM0 0L0 7L7 7L7 0ZM1 1L1 6L6 6L6 1ZM2 2L2 5L5 5L5 2ZM18 0L18 7L25 7L25 0ZM19 1L19 6L24 6L24 1ZM20 2L20 5L23 5L23 2ZM0 18L0 25L7 25L7 18ZM1 19L1 24L6 24L6 19ZM2 20L2 23L5 23L5 20Z" fill="#000000"/></g></g></svg>
