<?xml version="1.0" encoding="UTF-8"?>
<svg xmlns="http://www.w3.org/2000/svg" version="1.1" width="300" height="300" viewBox="0 0 300 300"><rect x="0" y="0" width="300" height="300" fill="#ffffff"/><g transform="scale(10.345)"><g transform="translate(2,2)"><path fill-rule="evenodd" d="M8 0L8 2L9 2L9 3L8 3L8 7L9 7L9 8L10 8L10 9L9 9L9 10L8 10L8 9L7 9L7 8L6 8L6 9L5 9L5 10L3 10L3 11L2 11L2 9L0 9L0 10L1 10L1 11L0 11L0 13L1 13L1 11L2 11L2 13L4 13L4 14L2 14L2 15L1 15L1 14L0 14L0 15L1 15L1 16L0 16L0 17L4 17L4 16L5 16L5 17L8 17L8 18L9 18L9 21L8 21L8 22L9 22L9 23L10 23L10 24L12 24L12 25L13 25L13 24L12 24L12 22L13 22L13 23L14 23L14 24L15 24L15 23L17 23L17 21L18 21L18 23L19 23L19 24L16 24L16 25L20 25L20 24L21 24L21 25L22 25L22 24L23 24L23 22L24 22L24 25L25 25L25 22L24 22L24 21L25 21L25 19L21 19L21 17L22 17L22 18L23 18L23 17L22 17L22 14L23 14L23 11L22 11L22 10L23 10L23 9L25 9L25 8L23 8L23 9L22 9L22 8L19 8L19 10L18 10L18 9L17 9L17 6L16 6L16 5L17 5L17 4L16 4L16 3L17 3L17 1L15 1L15 0L14 0L14 1L13 1L13 0L12 0L12 1L11 1L11 2L10 2L10 1L9 1L9 0ZM12 1L12 2L11 2L11 3L9 3L9 4L12 4L12 6L11 6L11 5L10 5L10 6L9 6L9 7L10 7L10 8L11 8L11 7L12 7L12 6L13 6L13 7L14 7L14 5L15 5L15 1L14 1L14 2L13 2L13 1ZM10 6L10 7L11 7L11 6ZM15 6L15 7L16 7L16 6ZM3 8L3 9L4 9L4 8ZM12 8L12 9L10 9L10 10L9 10L9 12L11 12L11 14L12 14L12 15L11 15L11 16L8 16L8 15L6 15L6 14L8 14L8 12L7 12L7 11L8 11L8 10L7 10L7 9L6 9L6 10L5 10L5 11L4 11L4 12L7 12L7 13L5 13L5 15L6 15L6 16L8 16L8 17L9 17L9 18L10 18L10 19L12 19L12 21L11 21L11 20L10 20L10 21L9 21L9 22L12 22L12 21L13 21L13 22L14 22L14 23L15 23L15 20L16 20L16 18L14 18L14 17L16 17L16 16L17 16L17 15L19 15L19 16L21 16L21 12L22 12L22 11L20 11L20 10L19 10L19 11L18 11L18 10L14 10L14 9L16 9L16 8ZM6 10L6 11L7 11L7 10ZM10 10L10 11L11 11L11 12L12 12L12 10ZM13 10L13 16L11 16L11 17L10 17L10 18L11 18L11 17L14 17L14 14L18 14L18 13L19 13L19 14L20 14L20 13L19 13L19 12L20 12L20 11L19 11L19 12L18 12L18 13L14 13L14 12L15 12L15 11L14 11L14 10ZM9 13L9 15L10 15L10 13ZM24 13L24 15L23 15L23 16L24 16L24 18L25 18L25 16L24 16L24 15L25 15L25 13ZM3 15L3 16L4 16L4 15ZM15 15L15 16L16 16L16 15ZM17 17L17 20L20 20L20 17ZM12 18L12 19L13 19L13 21L14 21L14 20L15 20L15 19L13 19L13 18ZM18 18L18 19L19 19L19 18ZM23 20L23 21L24 21L24 20ZM19 21L19 23L20 23L20 21ZM21 23L21 24L22 24L22 23ZM0 0L0 7L7 7L7 0ZM1 1L1 6L6 6L6 1ZM2 2L2 5L5 5L5 2ZM18 0L18 7L25 7L25 0ZM19 1L19 6L24 6L24 1ZM20 2L20 5L23 5L23 2ZM0 18L0 25L7 25L7 18ZM1 19L1 24L6 24L6 19ZM2 20L2 23L5 23L5 20Z" fill="#000000"/></g></g></svg>
