<?xml version="1.0" encoding="UTF-8"?>
<svg xmlns="http://www.w3.org/2000/svg" version="1.1" width="300" height="300" viewBox="0 0 300 300"><rect x="0" y="0" width="300" height="300" fill="#ffffff"/><g transform="scale(12)"><g transform="translate(2,2)"><path fill-rule="evenodd" d="M8 0L8 1L9 1L9 3L8 3L8 4L9 4L9 5L10 5L10 4L13 4L13 3L12 3L12 2L13 2L13 1L12 1L12 0L11 0L11 1L10 1L10 0ZM11 1L11 2L10 2L10 3L9 3L9 4L10 4L10 3L11 3L11 2L12 2L12 1ZM12 5L12 7L11 7L11 6L10 6L10 7L11 7L11 9L10 9L10 11L11 11L11 10L12 10L12 13L13 13L13 14L11 14L11 13L10 13L10 15L11 15L11 16L12 16L12 17L13 17L13 18L11 18L11 19L9 19L9 18L8 18L8 19L9 19L9 21L10 21L10 20L12 20L12 21L14 21L14 18L15 18L15 17L16 17L16 16L18 16L18 18L20 18L20 19L18 19L18 21L19 21L19 20L20 20L20 21L21 21L21 18L20 18L20 17L21 17L21 14L20 14L20 13L19 13L19 12L21 12L21 11L20 11L20 10L18 10L18 8L17 8L17 10L16 10L16 11L17 11L17 10L18 10L18 11L19 11L19 12L16 12L16 13L15 13L15 11L14 11L14 12L13 12L13 10L12 10L12 7L13 7L13 5ZM8 6L8 7L9 7L9 6ZM2 8L2 9L3 9L3 8ZM4 8L4 9L7 9L7 10L6 10L6 11L8 11L8 12L5 12L5 13L8 13L8 14L9 14L9 13L8 13L8 12L9 12L9 10L8 10L8 9L9 9L9 8L8 8L8 9L7 9L7 8ZM13 8L13 9L14 9L14 8ZM20 8L20 9L21 9L21 8ZM0 9L0 12L1 12L1 11L2 11L2 12L4 12L4 11L5 11L5 10L3 10L3 11L2 11L2 10L1 10L1 9ZM14 13L14 14L13 14L13 17L14 17L14 14L15 14L15 13ZM16 13L16 15L18 15L18 16L19 16L19 17L20 17L20 16L19 16L19 14L17 14L17 13ZM8 15L8 17L10 17L10 16L9 16L9 15ZM16 18L16 19L17 19L17 18ZM16 20L16 21L17 21L17 20ZM0 0L0 7L7 7L7 0ZM1 1L1 6L6 6L6 1ZM2 2L2 5L5 5L5 2ZM14 0L14 7L21 7L21 0ZM15 1L15 6L20 6L20 1ZM16 2L16 5L19 5L19 2ZM0 14L0 21L7 21L7 14ZM1 15L1 20L6 20L6 15ZM2 16L2 19L5 19L5 16Z" fill="#000000"/></g></g></svg>
