<?xml version="1.0" encoding="UTF-8"?>
<svg xmlns="http://www.w3.org/2000/svg" version="1.1" width="300" height="300" viewBox="0 0 300 300"><rect x="0" y="0" width="300" height="300" fill="#ffffff"/><g transform="scale(12)"><g transform="translate(2,2)"><path fill-rule="evenodd" d="M12 0L12 1L13 1L13 0ZM10 1L10 2L8 2L8 4L9 4L9 5L11 5L11 6L10 6L10 7L9 7L9 6L8 6L8 7L9 7L9 8L10 8L10 9L8 9L8 8L6 8L6 9L8 9L8 10L6 10L6 11L9 11L9 13L8 13L8 15L9 15L9 16L8 16L8 18L9 18L9 17L10 17L10 15L11 15L11 16L12 16L12 15L13 15L13 17L12 17L12 18L14 18L14 20L13 20L13 19L12 19L12 20L9 20L9 21L17 21L17 20L18 20L18 21L20 21L20 19L21 19L21 18L19 18L19 20L18 20L18 18L17 18L17 17L19 17L19 16L20 16L20 17L21 17L21 13L20 13L20 12L21 12L21 11L20 11L20 10L21 10L21 9L19 9L19 8L17 8L17 9L15 9L15 10L14 10L14 12L13 12L13 10L12 10L12 9L13 9L13 6L12 6L12 5L11 5L11 4L10 4L10 3L12 3L12 4L13 4L13 2L11 2L11 1ZM11 6L11 7L12 7L12 6ZM3 8L3 11L1 11L1 10L2 10L2 9L1 9L1 10L0 10L0 11L1 11L1 12L0 12L0 13L1 13L1 12L3 12L3 13L7 13L7 12L5 12L5 11L4 11L4 10L5 10L5 8ZM17 9L17 10L16 10L16 11L17 11L17 12L18 12L18 11L19 11L19 12L20 12L20 11L19 11L19 10L18 10L18 9ZM9 10L9 11L11 11L11 13L9 13L9 15L10 15L10 14L11 14L11 15L12 15L12 14L13 14L13 13L12 13L12 11L11 11L11 10ZM17 10L17 11L18 11L18 10ZM3 11L3 12L4 12L4 11ZM11 13L11 14L12 14L12 13ZM14 13L14 14L15 14L15 16L14 16L14 17L16 17L16 16L18 16L18 13ZM19 14L19 15L20 15L20 14ZM10 18L10 19L11 19L11 18ZM16 19L16 20L17 20L17 19ZM0 0L0 7L7 7L7 0ZM1 1L1 6L6 6L6 1ZM2 2L2 5L5 5L5 2ZM14 0L14 7L21 7L21 0ZM15 1L15 6L20 6L20 1ZM16 2L16 5L19 5L19 2ZM0 14L0 21L7 21L7 14ZM1 15L1 20L6 20L6 15ZM2 16L2 19L5 19L5 16Z" fill="#000000"/></g></g></svg>
